HIERARCHY
ROOT Hips
{
	OFFSET -0.001795 -0.223333 0.028219
	CHANNELS 6 Xposition Yposition Zposition Zrotation Yrotation Xrotation 
	JOINT LeftUpLeg
	{
		OFFSET 0.069520 -0.091406 -0.006815
		CHANNELS 3 Zrotation Yrotation Xrotation
		JOINT LeftLeg
		{
			OFFSET 0.034277 -0.375199 -0.004496
			CHANNELS 3 Zrotation Yrotation Xrotation
			JOINT LeftFoot
			{
				OFFSET -0.013596 -0.397961 -0.043693
				CHANNELS 3 Zrotation Yrotation Xrotation
				JOINT LeftToe
				{
					OFFSET 0.026358 -0.055791 0.119288
					CHANNELS 3 Zrotation Yrotation Xrotation
					End Site
					{
						OFFSET 0.000000 0.000000 0.000000
					}
				}
			}
		}
	}
	JOINT RightUpLeg
	{
		OFFSET -0.067670 -0.090522 -0.004320
		CHANNELS 3 Zrotation Yrotation Xrotation
		JOINT RightLeg
		{
			OFFSET -0.038290 -0.382569 -0.008850
			CHANNELS 3 Zrotation Yrotation Xrotation
			JOINT RightFoot
			{
				OFFSET 0.015774 -0.398415 -0.042312
				CHANNELS 3 Zrotation Yrotation Xrotation
				JOINT RightToe
				{
					OFFSET -0.025372 -0.048144 0.123348
					CHANNELS 3 Zrotation Yrotation Xrotation
					End Site
					{
						OFFSET 0.000000 0.000000 0.000000
					}
				}
			}
		}
	}
	JOINT Spine
	{
		OFFSET -0.002533 0.108963 -0.026696
		CHANNELS 3 Zrotation Yrotation Xrotation
		JOINT Spine1
		{
			OFFSET 0.005487 0.135180 0.001092
			CHANNELS 3 Zrotation Yrotation Xrotation
			JOINT Spine2
			{
				OFFSET 0.001457 0.052922 0.025425
				CHANNELS 3 Zrotation Yrotation Xrotation
				JOINT Neck
				{
					OFFSET -0.002778 0.213870 -0.042857
					CHANNELS 3 Zrotation Yrotation Xrotation
					JOINT Head
					{
						OFFSET 0.005152 0.064970 0.051349
						CHANNELS 3 Zrotation Yrotation Xrotation
						End Site
						{
							OFFSET 0.000000 0.000000 0.000000
						}
					}
				}
				JOINT LeftShoulder
				{
					OFFSET 0.078845 0.121749 -0.034090
					CHANNELS 3 Zrotation Yrotation Xrotation
					JOINT LeftArm
					{
						OFFSET 0.090977 0.030469 -0.008868
						CHANNELS 3 Zrotation Yrotation Xrotation
						JOINT LeftForeArm
						{
							OFFSET 0.259612 -0.012772 -0.027456
							CHANNELS 3 Zrotation Yrotation Xrotation
							JOINT LeftHand
							{
								OFFSET 0.249234 0.008986 -0.001171
								CHANNELS 3 Zrotation Yrotation Xrotation
								End Site
								{
									OFFSET 0.000000 0.000000 0.000000
								}
							}
						}
					}
				}
				JOINT RightShoulder
				{
					OFFSET -0.081759 0.118833 -0.038615
					CHANNELS 3 Zrotation Yrotation Xrotation
					JOINT RightArm
					{
						OFFSET -0.096012 0.032551 -0.009143
						CHANNELS 3 Zrotation Yrotation Xrotation
						JOINT RightForeArm
						{
							OFFSET -0.253742 -0.013329 -0.021401
							CHANNELS 3 Zrotation Yrotation Xrotation
							JOINT RightHand
							{
								OFFSET -0.255298 0.007772 -0.005559
								CHANNELS 3 Zrotation Yrotation Xrotation
								End Site
								{
									OFFSET 0.000000 0.000000 0.000000
								}
							}
						}
					}
				}
			}
		}
	}
}
MOTION
Frames: 7
Frame Time: 0.050000
0.000000 0.941929 0.000000 2.468268 19.870948 3.495247 6.016463 -0.351248 1.278223 -5.927461 0.360062 3.133852 20.350433 31.086240 30.410078 0.000000 0.000000 0.000000 -6.687603 0.121288 -12.552078 3.518448 -0.824867 10.674188 0.125782 0.140593 0.640702 0.000000 0.000000 0.000000 9.465646 -3.090057 17.711425 -3.594337 1.892355 -20.760437 -2.881420 -5.204496 25.756192 3.253688 0.411338 -24.037245 0.000000 0.000000 0.000000 -6.054075 -26.381826 9.544423 -6.950274 -35.435983 -1.586118 25.544754 -25.185879 -5.283921 0.000000 0.000000 0.000000 28.548177 8.729151 6.771820 45.739336 21.377898 0.340233 5.671337 35.128410 3.814935 0.000000 0.000000 0.000000 
0.001157 0.942839 0.001391 3.079167 20.782648 4.909120 4.908277 -0.318074 -0.203569 -4.399659 0.237647 2.364606 20.395939 30.812794 33.379342 0.000000 0.000000 0.000000 -8.092387 -0.147535 -14.284275 4.808314 -1.279185 12.098940 -0.132381 -0.469211 0.526226 0.000000 0.000000 0.000000 8.137486 -2.663644 16.640581 -2.710067 1.676517 -21.278431 -2.811413 -5.227700 25.861158 3.029523 0.603928 -23.750571 0.000000 0.000000 0.000000 -5.974480 -24.047962 8.561241 -6.728441 -35.245326 -1.684422 28.878194 -24.828440 -6.079533 0.000000 0.000000 0.000000 30.242882 7.223483 6.134609 43.293603 19.839763 -0.513357 8.140063 36.416700 4.737608 0.000000 0.000000 0.000000 
0.003314 0.942723 0.002783 2.422953 21.738593 4.402495 5.696885 -0.381586 0.038555 -4.222428 0.215887 2.201533 19.889496 30.357431 33.510167 0.000000 0.000000 0.000000 -7.822089 -0.138407 -13.796988 4.989108 -1.428367 12.831738 -0.050476 -0.130196 -0.184268 0.000000 0.000000 0.000000 9.352147 -2.868355 16.267005 -4.460179 2.053449 -22.571817 -2.256081 -5.900218 26.232304 2.102024 1.041735 -22.550515 0.000000 0.000000 0.000000 -4.997258 -23.649154 8.317723 -5.448912 -34.725791 -1.946546 27.806772 -25.555850 -6.027143 0.000000 0.000000 0.000000 28.693575 5.855395 5.061048 44.136074 17.953679 -1.119220 8.564154 34.216513 4.539367 0.000000 0.000000 0.000000 
0.006358 0.943412 0.003772 2.449068 22.351881 4.247260 5.090375 -0.334001 0.147246 -3.335485 0.134399 2.971833 18.544588 29.510428 31.268245 0.000000 0.000000 0.000000 -8.342142 -0.256338 -13.514885 5.030672 -1.530883 13.576447 0.308456 0.874906 -0.663240 0.000000 0.000000 0.000000 9.638372 -3.099861 17.047349 -5.013999 2.117995 -23.589352 -2.401482 -5.640105 26.680379 1.943651 1.340118 -23.434919 0.000000 0.000000 0.000000 -3.651371 -23.402292 8.009189 -3.767235 -33.723217 -2.222263 29.824516 -25.010375 -6.514592 0.000000 0.000000 0.000000 27.587311 4.970639 4.640428 45.852049 16.978486 -1.425944 7.074794 33.646822 4.110402 0.000000 0.000000 0.000000 
0.010071 0.943213 0.004363 2.578384 23.050382 3.911634 4.895350 -0.307563 0.699627 -2.976699 0.102968 2.933236 17.139806 28.404777 30.207343 0.000000 0.000000 0.000000 -8.796954 -0.376861 -13.482766 4.580501 -1.492849 14.339250 0.684919 1.706869 -0.158499 0.000000 0.000000 0.000000 9.447253 -3.154053 17.464526 -5.076165 2.122704 -24.011973 -2.668176 -5.950030 26.614821 1.752792 1.481504 -23.564871 0.000000 0.000000 0.000000 -3.624597 -24.115473 8.239102 -2.270486 -33.001725 -2.411660 32.825826 -25.753388 -7.542478 0.000000 0.000000 0.000000 27.510853 4.540605 4.377955 45.125113 16.260021 -1.708764 7.060102 31.733911 3.777912 0.000000 0.000000 0.000000 
0.013984 0.943558 0.003918 2.608230 22.784372 4.179002 4.503959 -0.279297 0.509295 -2.526590 0.066785 3.041418 16.508679 27.896783 30.134285 0.000000 0.000000 0.000000 -9.234080 -0.468931 -14.206828 4.448853 -1.531392 15.416629 1.118843 2.843235 -0.302029 0.000000 0.000000 0.000000 8.889489 -3.065081 17.641516 -4.736901 2.024072 -24.377220 -2.508387 -5.526334 26.719997 1.211060 1.897949 -23.968846 0.000000 0.000000 0.000000 -3.219973 -23.688602 8.019507 -1.726316 -33.118879 -2.542972 35.659785 -24.665932 -8.009386 0.000000 0.000000 0.000000 27.795949 4.914422 4.781030 44.458337 15.942458 -1.893302 6.406590 31.220235 3.508453 0.000000 0.000000 0.000000 
0.017701 0.943417 0.002467 2.625557 23.005835 3.911106 4.473296 -0.276344 0.513659 -2.840978 0.084362 3.229486 16.858030 28.144437 30.705600 0.000000 0.000000 0.000000 -9.670410 -0.572771 -14.249637 4.363237 -1.532606 15.620590 1.436235 3.393741 0.573873 0.000000 0.000000 0.000000 8.152508 -3.102872 18.651510 -4.499888 1.969106 -24.672851 -2.581982 -5.494545 26.475673 0.951080 2.098964 -24.308892 0.000000 0.000000 0.000000 -2.574542 -23.780738 7.962882 -1.097154 -33.388787 -2.675780 37.907011 -23.535040 -8.254136 0.000000 0.000000 0.000000 28.566719 5.093921 5.014121 43.836407 15.675355 -2.029085 5.762922 31.042898 3.291016 0.000000 0.000000 0.000000 
